<svg xmlns="http://www.w3.org/2000/svg" version="1.1" xmlns:xlink="http://www.w3.org/1999/xlink" viewBox="0 0 700 700" style="overflow: hidden; display: block;" width="700" height="700"><defs></defs><g id="two-0" transform="matrix(1 0 0 1 0 0)" opacity="1"><path transform="matrix(1 0 0 1 350 350)" id="two-2" d="M 208.633118 61.26021 C 198.110788 96.59625 278.595096 135.740378 254.114462 163.309448 C 218.788565 203.092003 147.354597 91.054425 100.128098 115.553985 C 81.442468 125.247476 99.548856 167.311036 80.487974 176.24408 C 61.648106 185.073545 42.436487 149.055152 21.966729 152.781959 C -0.307375 156.837273 -11.612875 184.183086 -28.62879 199.117606 C -61.408388 227.887588 -92.35298 306.571776 -129.781037 284.18083 C -181.084451 253.489095 -49.873253 148.681535 -92.607516 106.874769 C -120.584158 79.505327 -188.69624 167.728611 -208.121798 133.751757 C -230.916774 93.881521 -106.234643 78.478702 -112.177532 32.938295 C -114.865805 12.338037 -148.105773 10.841562 -165.827453 0 C -216.632297 -31.080797 -334.913502 -36.297576 -319.930608 -93.940103 C -306.317993 -146.310864 -195.519403 -63.258146 -156.081571 -100.307535 C -138.810325 -116.532795 -151.593502 -148.214676 -148.821474 -171.749137 C -144.18054 -211.150573 -160.350176 -262.308314 -132.853054 -290.90761 C -112.236537 -312.350504 -72.454391 -315.21653 -44.05085 -306.380392 C -9.971262 -295.778475 15.526704 -261.677893 33.162289 -230.648791 C 50.467087 -200.201695 35.57403 -154.226153 58.240921 -127.529829 C 67.106831 -117.087848 82.798708 -112.441003 96.450026 -111.309265 C 137.938147 -107.869764 197.957889 -176.669599 219.104995 -140.810231 C 242.86998 -100.511699 108.865698 -80.702988 123.38836 -36.230092 C 142.22243 21.445668 292.350679 -59.61329 303.640995 -0.000001 C 310.582891 36.653471 219.279771 25.50667 208.633118 61.26021 Z " fill="hsl(58, 38%, 81%)" stroke="undefined" stroke-width="1" stroke-opacity="1" fill-opacity="1" visibility="visible" stroke-linecap="butt" stroke-linejoin="miter" stroke-miterlimit="4"></path></g></svg>