<svg xmlns="http://www.w3.org/2000/svg" version="1.1" xmlns:xlink="http://www.w3.org/1999/xlink" viewBox="0 0 700 700" style="overflow: hidden; display: block;" width="700" height="700"><defs></defs><g id="two-0" transform="matrix(1 0 0 1 0 0)" opacity="1"><path transform="matrix(1 0 0 1 350 350)" id="two-520" d="M 278.636726 68.677784 C 284.030128 91.442895 275.973078 118.68254 262.296345 137.663741 C 248.019119 157.478334 219.625919 162.975138 199.382398 176.637391 C 181.938333 188.410304 163.988434 200.718048 147.955075 214.349932 C 130.838158 228.90308 116.186894 247.143905 99.386945 262.061838 C 79.91373 279.353565 61.389531 300.360402 37.813629 311.423256 C 14.165545 322.51998 -13.620416 327.693086 -39.739399 327.28339 C -65.992447 326.871592 -95.616868 323.925616 -117.152157 308.90485 C -140.203439 292.826686 -140.154424 252.426119 -164.237586 237.93922 C -190.921178 221.888069 -240.939663 254.650949 -258.145249 228.696733 C -279.423843 196.598481 -210.588646 153.574971 -223.448543 117.274841 C -232.470074 91.809416 -273.931194 92.330399 -291.567556 71.864948 C -308.676925 52.011026 -322.284668 26.025783 -325.377772 0 C -328.41264 -25.535786 -320.695435 -53.098185 -309.655116 -76.323132 C -298.619657 -99.537856 -279.583475 -119.550738 -260.415577 -136.676639 C -242.424678 -152.75093 -219.830623 -164.176193 -198.941474 -176.246766 C -180.617204 -186.835251 -158.371687 -192.29766 -141.938981 -205.634115 C -124.232268 -220.004528 -116.967835 -246.111459 -98.310976 -259.224739 C -79.968191 -272.117267 -53.791611 -270.821186 -34.209379 -281.739576 C -6.101805 -297.411408 10.50103 -351.105622 41.650225 -343.020471 C 80.572574 -332.917704 57.694619 -257.298524 87.23203 -230.011963 C 102.16918 -216.213074 128.029568 -221.024353 146.024957 -211.553674 C 164.288527 -201.941856 179.236909 -185.996272 195.251011 -172.977303 C 212.512132 -158.944546 229.448736 -143.460556 246.78781 -129.524235 C 268.77354 -111.853156 314.109165 -105.756137 314.649921 -77.554241 C 315.418956 -37.44705 224.671246 -39.950269 221.044372 -0.000001 C 218.370151 29.456724 271.81803 39.89662 278.636726 68.677784 Z " fill="hsl(88, 56%, 12%)" stroke="undefined" stroke-width="1" stroke-opacity="1" fill-opacity="1" visibility="visible" stroke-linecap="butt" stroke-linejoin="miter" stroke-miterlimit="4"></path></g></svg>