<svg xmlns="http://www.w3.org/2000/svg" version="1.1" xmlns:xlink="http://www.w3.org/1999/xlink" viewBox="0 0 700 700" style="overflow: hidden; display: block;" width="700" height="700"><defs></defs><g id="two-0" transform="matrix(1 0 0 1 0 0)" opacity="1"><path transform="matrix(1 0 0 1 350 350)" id="two-8" d="M 149.110213 43.782708 C 138.36824 58.389443 151.077166 80.574788 153.364402 98.561316 C 157.533237 131.344491 176.136886 164.545773 170.845864 197.166638 C 165.98491 227.135995 155.171154 266.777351 126.97494 278.036336 C 97.569716 289.778089 66.378398 240.513188 35.715792 248.408791 C -3.725159 258.564812 -8.055898 341.575884 -48.665085 338.473096 C -85.669892 335.645704 -81.813935 266.988346 -112.195386 245.673624 C -135.14606 229.572113 -169.556254 237.306249 -194.445484 224.40205 C -220.067852 211.117744 -243.300616 190.512628 -261.137414 167.822825 C -279.264759 144.763424 -306.839318 117.130544 -301.009257 88.384292 C -292.067632 44.295867 -198.630529 44.963975 -197.222434 0 C -195.985332 -39.503703 -293.918614 -45.115548 -283.368368 -83.20446 C -273.13909 -120.1346 -194.467817 -79.716793 -170.239878 -109.406527 C -152.592869 -131.031767 -172.714419 -166.437609 -168.067116 -193.959792 C -162.157529 -228.95745 -170.130766 -289.238888 -135.372756 -296.424988 C -80.716545 -307.724973 -75.947374 -190.012443 -24.283732 -168.897064 C -9.232713 -162.745582 9.392454 -177.828996 24.837145 -172.746139 C 40.900638 -167.459633 52.556716 -152.023368 63.56347 -139.184587 C 73.243721 -127.8931 73.468577 -105.858798 87.53112 -101.016299 C 140.336284 -82.832606 196.90152 -183.835802 246.692422 -158.539594 C 270.998821 -146.190757 256.628014 -103.083007 269.830003 -79.229238 C 286.776773 -48.609278 350.977148 -33.336197 340.32478 -0.000001 C 320.62102 61.662199 187.461901 -8.367201 149.110213 43.782708 Z " fill="hsl(208, 100%, 18%)" stroke="undefined" stroke-width="1" stroke-opacity="1" fill-opacity="1" visibility="visible" stroke-linecap="butt" stroke-linejoin="miter" stroke-miterlimit="4"></path></g></svg>