<svg xmlns="http://www.w3.org/2000/svg" version="1.1" xmlns:xlink="http://www.w3.org/1999/xlink" viewBox="0 0 700 700" style="overflow: hidden; display: block;" width="700" height="700"><defs></defs><g id="two-0" transform="matrix(1 0 0 1 0 0)" opacity="1"><path transform="matrix(1 0 0 1 350 350)" id="two-290" d="M 210.270829 76.532323 C 222.656751 116.347412 262.933726 166.293813 238.095283 199.785664 C 214.876076 231.094156 158.209418 217.362545 120.287982 208.344897 C 85.334537 200.033031 60.743936 164.411552 26.875858 152.420567 C 10.399683 146.587181 -9.026647 139.309562 -25.562433 144.97176 C -90.037874 167.049499 -101.18996 291.145125 -169.308075 293.250187 C -207.851429 294.441297 -251.633103 252.881931 -255.669267 214.531987 C -262.654241 148.16369 -120.319362 114.564287 -137.848504 50.172752 C -148.579537 10.753383 -249.944032 40.839586 -251.025643 0 C -252.052242 -38.762448 -160.799621 -17.286727 -146.276038 -53.240124 C -133.475195 -84.928847 -180.798399 -116.955541 -180.103803 -151.125035 C -179.413663 -185.075311 -161.036978 -218.439931 -142.568394 -246.935702 C -121.069262 -280.107403 -97.903275 -328.094272 -58.605765 -332.369809 C -17.442557 -336.848332 23.220487 -298.108647 46.530415 -263.887103 C 72.174417 -226.238882 36.991392 -154.823178 74.287466 -128.669667 C 100.431003 -110.336764 138.374488 -146.861678 170.029218 -142.671455 C 206.17354 -137.886932 263.940812 -134.473832 271.42508 -98.79065 C 280.561704 -55.229429 187.736684 -43.75893 179.599481 -0.000001 C 174.625217 26.749786 202.18873 50.55206 210.270829 76.532323 Z " fill="rgb(253, 215, 138)" stroke="undefined" stroke-width="1" stroke-opacity="1" fill-opacity="1" visibility="visible" stroke-linecap="butt" stroke-linejoin="miter" stroke-miterlimit="4"></path></g></svg>